<svg xmlns="http://www.w3.org/2000/svg" xmlns:xlink="http://www.w3.org/1999/xlink" version="1.0" id="Layer_1" x="0px" y="0px" width="100px" height="100px" viewBox="0 0 100 100" enable-background="new 0 0 100 100" xml:space="preserve">
<path fill="#000000" d="M91.082,71.786c0.46,0.203,0,1.609-0.905,1.207c-0.905-0.402-11.365-2.313-15.589-4.727  c-4.224-2.414-10.258-6.537-15.187-7.744c-4.928-1.207-12.371-1.609-12.471,0c-0.101,1.609,2.313,4.752,3.118,5.745  c0.805,0.993,1.911,2.2,1.609,2.904c-0.229,0.534,0.524,2.294-0.64,4.082c-0.37,0.569-1.382,1.866-2.24,2.524  c-1.294,0.992-2.319,1.296-3.124,1.698c-0.805,0.402-1.207,1.207-1.81,1.106c-0.603-0.101,0.101-1.509,0-1.81  c-0.101-0.302-1.106,0-1.408-0.201c-0.302-0.201,0.1-1.408,0.905-1.71c0.805-0.302,1.348-0.302,2.542-1.439  c1.055-1.005,2.054-2.239,1.45-2.842c-0.603-0.603-4.124-4.928-4.626-4.828c-0.503,0.101,1.408,2.468,1.509,3.446  c0.101,0.979,0.149,2.626-1.26,3.431c-0.466,0.266-1.246,0.628-2.107,0.992c-1.741,0.737-3.815,1.488-4.305,1.495  c-0.731,0.011,0.731-1.218,0.731-1.419c0-0.201-1.307,0.805-2.011,0.603c-0.704-0.201,0.037-0.838,0.942-1.24  c0.905-0.402,3.483-1.073,3.885-2.28c0.402-1.207-0.805-1.61-2.514-5.331c-1.71-3.721-0.704-7.241-1.509-8.75  c-0.804-1.509-3.319-3.822-4.325-3.42c-1.006,0.402-3.822,2.715-4.224,3.721c-0.222,0.555-0.868,0.563-1.405,0.986  c-0.436,0.344-0.776,1.155-0.956,1.2c-0.402,0.1-0.403-1.351,0.23-1.955c0.291-0.278-1.06,0.396-1.087-0.03  c-0.02-0.315,0.384-0.744,0.929-0.984c1.768-0.776,2.376-2.925,2.591-4.145c0.302-1.71,0.905-1.408,0.302-1.71  c-0.603-0.302-1.293,0.069-1.987,0.658c-0.187,0.159-0.538,0.197-0.712,0.431c-0.302,0.406-0.413,0.974-0.668,0.719  c-0.402-0.402,0.797-1.479,0.294-1.579c-0.503-0.101-0.963,0.408-1.006-0.045c-0.05-0.529,1.919-0.921,2.322-1.826  c0.402-0.905,0.349-1.376-0.757-2.884c-1.106-1.509-2.112-3.822-2.313-5.934c-0.201-2.112-0.604-4.827-1.509-5.733  c-0.905-0.905-5.029-0.403-7.141-1.106c-2.112-0.704-3.621-0.603-3.621-1.207c0-0.603,2.213-0.402,3.822-1.006  c1.609-0.603,3.319-3.017,3.319-3.017s-5.532,0.402-7.644,0C8.41,27.432,8.51,27.03,9.114,26.628  c0.603-0.403,5.23-3.319,7.543-4.425c2.313-1.107,4.727-1.006,6.336,0c1.609,1.006,4.928,2.816,5.833,6.537  c0.905,3.721,1.509,7.04,3.118,7.945c1.609,0.905,8.649,0.402,11.868,1.509c3.218,1.106,6.638,2.313,9.856,6.034  c3.218,3.721,10.56,11.365,15.287,14.684c4.727,3.319,5.733,5.733,8.951,7.342C81.125,67.863,88.568,70.679,91.082,71.786z"/>
</svg>